 http://img246.imageshack.us/img246/3040/torentcover.jpg

Weekend at Bernie's is a 1989 American motion picture comedy directed by Ted Kotcheff. It is a comedy starring Andrew McCarthy and Jonathan Silverman as a couple of young insurance executives who discover their boss is deceased. Believing that they are responsible for his death and that a hitman won't kill them if Bernie is around, they attempt to convince people that he is still alive.
Though the movie was not a blockbuster, it was still a cultural icon as well as a financial success, grossing $70 million worldwide at the box office and was profitable on home video.

 
http://www.imdb.com/title/tt0098627/



* Andrew McCarthy - Larry Wilson
* Jonathan Silverman - Richard Parker
* Terry Kiser - Bernie Lomax
* Catherine Mary Stewart - Gwen Saunders
* Don Calfa - Paulie
* Catherine Parks - Tina
* Eloise Broady - Tawny
* Gregory Salata - Marty
* Louis Giambalvo - Vito
* Ted Kotcheff - Richard's Dad
* Margaret Hall - Lomax's Secretary

General
Complete name : Weekend At Bernies - 1989 (DvdRip,Xvid)Weekend At Bernies.avi
Format : AVI
Format/Info : Audio Video Interleave
File size : 700 MiB
Duration : 1h 34mn
Overall bit rate : 1 038 Kbps
Writing application : VirtualDubMod 1.5.4.1 (build 2178/release)
Writing library : VirtualDubMod build 2178/release

Video
ID : 0
Format : MPEG-4 Visual
Format profile : Advanced Simple@L5
Format settings, BVOP : Yes
Format settings, QPel : No
Format settings, GMC : No warppoints
Format settings, Matrix : Default (H.263)
Muxing mode : Packed bitstream
Codec ID : XVID
Codec ID/Hint : XviD
Duration : 1h 34mn
Bit rate : 907 Kbps
Width : 592 pixels
Height : 336 pixels
Display aspect ratio : 16:9
Frame rate : 25.000 fps
Color space : YUV
Chroma subsampling : 4:2:0
Bit depth : 8 bits
Scan type : Progressive
Bits/(Pixel*Frame) : 0.182
Stream size : 612 MiB (87%)
Writing library : XviD 1.2.1 (UTC 2008-12-04)

Audio
ID : 1
Format : MPEG Audio
Format version : Version 1
Format profile : Layer 3
Mode : Joint stereo
Mode extension : MS Stereo
Codec ID : 55
Codec ID/Hint : MP3
Duration : 1h 34mn
Bit rate mode : Variable
Bit rate : 117 Kbps
Nominal bit rate : 128 Kbps
Channel(s) : 2 channels
Sampling rate : 48.0 KHz
Stream size : 79.2 MiB (11%)
Alignment : Aligned on interleaves
Interleave, duration : 24 ms (0.60 video frame)
Interleave, preload duration : 156 ms
Writing library : LAME3.98r
Encoding settings : -m j -V 4 -q 2 -lowpass 17 --abr 128
Language : English

screens 
http://img25.imageshack.us/img25/8683/90656520.png 
http://img829.imageshack.us/img829/999/50814081.png 
http://img2.imageshack.us/img2/1593/13945867.png 
http://img46.imageshack.us/img46/2218/75767665.png 
http://img820.imageshack.us/img820/9973/77013987.png